<svg 
    width="100" 
    height="100" 
    viewBox="0 0 24 24" 
    fill="none" 
    xmlns="http://www.w3.org/2000/svg"
>
    <rect width="24" height="24" rx="12" fill="#0084ff"/>
    <path 
        d="M12 2C6.48 2 2 5.97 2 11C2 13.98 3.64 16.61 6.22 18.17L5.24 21.92C5.15 22.26 5.5 22.52 5.77 22.31L10.13 19H12C17.52 19 22 15.03 22 11C22 5.97 17.52 2 12 2ZM9 10C8.45 10 8 9.55 8 9C8 8.45 8.45 8 9 8C9.55 8 10 8.45 10 9C10 9.55 9.55 10 9 10ZM15 10C14.45 10 14 9.55 14 9C14 8.45 14.45 8 15 8C15.55 8 16 8.45 16 9C16 9.55 15.55 10 15 10ZM8 13H16V15H8V13Z"
        fill="white"
    />
</svg>
